# xmcd
#
# Track frame offsets:
#	150
#	18214
#	39778
#	62771
#	82605
#	102491
#	118957
#	135785
#	154553
#	172732
#	196313
#	214698
#	226827
#
# Disc length: 3543 seconds
#
# Revision: 82681362
# Processed by: cddbd v1.5.1PL0 Copyright (c) Steve Scherf et al.
# Submitted via: EasyCDDAExtractor 8.0.2.1
#
DISCID=8f0dd50d
DTITLE=Skillz - Confessions Of A Ghostwriter
DYEAR=2005
DGENRE=Hip-Hop
TTITLE0=Off the Wall
TTITLE1=Suzie Q (Featuring Cee-Lo and Jazze Pha)
TTITLE2=Hip Hop
TTITLE3=PA to VA (Featuring Pretty Ugly)
TTITLE4=Y'all See Me (Featuring Pretty Willie)
TTITLE5=Wave Ya Hands (Featuring Musiq Soulchild)
TTITLE6=Imagine
TTITLE7=S.K.I.L.L.Z.
TTITLE8=It's Like That (Featuring Danja  Mowf)
TTITLE9=You Only Get One (Featuring Aaries)
TTITLE10=Y'all Don't Wanna Do That
TTITLE11=Skillz v. Shaqwan
TTITLE12=Who I Spit For
EXTD=
EXTT0=
EXTT1=
EXTT2=
EXTT3=
EXTT4=
EXTT5=
EXTT6=
EXTT7=
EXTT8=
EXTT9=
EXTT10=
EXTT11=
EXTT12=
PLAYORDER=
